<svg width="51" height="53" fill="none" xmlns="http://www.w3.org/2000/svg"><path fill-rule="evenodd" clip-rule="evenodd" d="M29.315 15.41c0 1.519.595 2.916 1.72 4.043 1.58 1.583 3.313 1.8 4.491 1.704 1.402-.115 2.812-.757 3.775-1.718l.246-.247c.708-.71 1.142-1.145 1.565-1.556l2.903 2.835 2.04-2.052.027-.05-2.86-2.87 2.034-2.042-2.127-2.132-2.035 2.044s-5.946-5.976-6.684-6.723c-.396-.403-.64-.828-.64-1.502 0-.715.322-1.192.596-1.464.398-.4.983-.649 1.52-.649.817 0 1.321.434 1.494.618l.044.045.044-.043 1.209-1.207.834-.836.036-.042-.057-.064A5.007 5.007 0 0 0 35.878 0c-1.42 0-2.735.568-3.699 1.597a5.224 5.224 0 0 0-1.418 3.537c0 2.136 1.213 3.449 2.07 4.248l-1.81 1.775c-1.052 1.054-1.706 2.686-1.706 4.253Zm3.841-2.108 1.797-1.803 4.022 3.994c-.184.19-.963.978-1.82 1.83-1.036 1.021-2.752 1.235-3.999-.013-.544-.549-.831-1.23-.831-1.973 0-.749.312-1.512.831-2.035Zm13.109 14.816a14.472 14.472 0 0 0-10.296-4.257c-3.889 0-7.546 1.51-10.296 4.257A14.446 14.446 0 0 0 21.409 38.4a14.43 14.43 0 0 0 4.264 10.278 14.47 14.47 0 0 0 10.296 4.259c3.89 0 7.547-1.512 10.296-4.26a14.426 14.426 0 0 0 4.266-10.277c0-3.884-1.516-7.534-4.266-10.283Zm-10.296 21.08c-2.889 0-5.606-1.125-7.647-3.164A10.721 10.721 0 0 1 25.15 38.4c0-2.888 1.129-5.598 3.172-7.637a10.74 10.74 0 0 1 7.647-3.166c2.89 0 5.605 1.123 7.65 3.166a10.726 10.726 0 0 1 3.167 7.637c0 5.952-4.852 10.796-10.817 10.796ZM21.433 17.428c0 6.187-3.389 11.83-8.855 14.746a11.32 11.32 0 0 1 3.785 3.965 11.238 11.238 0 0 1 1.47 5.557 11.21 11.21 0 0 1-3.314 7.978 11.23 11.23 0 0 1-7.988 3.304H.997L.99.719H4.7c4.47 0 8.673 1.738 11.836 4.897a16.575 16.575 0 0 1 4.896 11.813Zm-7.546-9.17A12.938 12.938 0 0 0 4.754 4.46V30.4a12.942 12.942 0 0 0 9.133-3.798 12.86 12.86 0 0 0 3.8-9.174c0-3.462-1.344-6.719-3.8-9.17Zm-9.133 40.98h1.773c4.165 0 7.554-3.383 7.554-7.542a7.5 7.5 0 0 0-2.21-5.336 7.558 7.558 0 0 0-5.36-2.204s-1.45-.008-1.757-.008v15.09Z" fill="#191817"/></svg>